# xmcd CD database file
#
# Track frame offsets:
#	150
#	15272
#	31145
#	44681
#	61521
#	80868
#	97034
#	115960
#	132301
#	145179
#	160832
#	181074
#
# Disc length: 2621 seconds
#
# Revision: 0
# Processed by: cddbd v1.5.2PL0 Copyright (c) Steve Scherf et al.
# Submitted via: CDex 1.51
#
DISCID=970a3b0c
DTITLE=Uncle Kracker - Happy Hour 
DYEAR=2009
DGENRE=Country
TTITLE0=Smile
TTITLE1=Another Love Song
TTITLE2=My Girlfriend
TTITLE3=Livin' The Dream
TTITLE4=Corner Bar
TTITLE5=Me Again (Feat. Jesse Lee Ion)
TTITLE6=Good To Be Me 
TTITLE7=I Hate California
TTITLE8=Hot Mess
TTITLE9=Hey Hey Hey
TTITLE10=I'm Not Leaving 
TTITLE11=Mainstreet
EXTD=YEAR: 2009
EXTT0=
EXTT1=
EXTT2=
EXTT3=
EXTT4=
EXTT5=
EXTT6=
EXTT7=
EXTT8=
EXTT9=
EXTT10=
EXTT11=
PLAYORDER=
